<svg xmlns="http://www.w3.org/2000/svg" viewBox="0 0 250 250" style="position:absolute"><path fill="#f8fdf4" d="M103.7 36.3c0-9.8 15-15.4 21.6-29.7 7.2 14.3 21.6 20 21.6 29.7 0 8.4-6 13-12 13-4 0-8-3-10-6.3-2 3.3-6 6.3-10 6.3-7 0-12-4.6-12-13z" class="color color-4" data-color="#F59751"/><path d="M125.4 43c-2.2 3.3-5.7 6.3-9.7 6.3-6.6 0-12-4.6-12-13 0-9.8 15-15.4 21.7-29.7" opacity=".1"/><path fill="#f8fdf4" d="M47.2 77.3c-7-7-.3-21.5-5.7-36.3 15.2 5 29.4-1.2 36.3 5.7 6 6 5.4 13 .8 17.6-2.8 2.8-7.5 3.2-11.4 2.4.8 4 .4 8.5-2.4 11.4-4.6 5-11.6 6-17.6 0zm-11 69c-9.7 0-15.3-15-29.6-21.6 14.3-7.2 20-21.6 29.7-21.6 8.4 0 13 6 13 12 0 4-3 8-6.3 10 3.3 2 6.3 6 6.3 10 0 7-4.6 12-13 12zm41 56.5c-7 7-21.4.3-36.2 5.7 5-15.2-1.2-29.4 5.7-36.3 6-6 13-5.4 17.6-.8 2.8 2.8 3.2 7.5 2.4 11.4 4-.8 8.5-.4 11.4 2.4 5 4.6 6 11.6 0 17.6zm69 11c0 9.7-15 15.3-21.5 29.6-7.2-14.3-21.6-20-21.6-29.7 0-8.4 6-13 12-13 4 0 8 3 10 6.3 2-3.3 6-6.3 10-6.3 7 0 12 4.6 12 13zm56.6-41c7 7 .3 21.4 5.7 36.2-15.2-5-29.4 1.2-36.3-5.7-6-6-5.4-13-.8-17.6 2.8-2.8 7.5-3.2 11.4-2.4-.8-4-.4-8.5 2.4-11.4 4.6-5 11.6-6 17.6 0zm11-69c9.7 0 15.3 15 29.6 21.5-14.3 7.2-20 21.6-29.7 21.6-8.4 0-13-6-13-12 0-4 3-8 6.3-10-3.3-2-6.3-6-6.3-10 0-7 4.6-12 13-12zm-41-56.6c7-7 21.4-.3 36.2-5.7-5 15.2 1.2 29.4-5.7 36.3-6 6-13 5.4-17.6.8-2.8-2.8-3.2-7.5-2.4-11.4-4 .8-8.5.4-11.4-2.4-5-4.6-6-11.6 0-17.6z" class="color color-4" data-color="#F59751"/><path fill="#b6f3f0" d="M99.8 68.7c7 7 .3 21.5 5.7 36.3-15.2-5-29.4 1.2-36.3-5.7-6-6-5.4-13-.8-17.6 2.8-2.8 7.5-3.2 11.4-2.4-.8-4-.4-8.5 2.4-11.4 4.6-5 11.7-6 17.6 0zM67.4 103c9.8 0 15.4 15 29.7 21.6-14 7.2-20 21.6-29 21.6-8 0-13-5.3-13-12 0-4 3-7.5 7-9.6-4-2.2-7-5.6-7-9.6 0-7 5-12 13-12zm1.3 47.2c7-7 21.5-.3 36.3-5.7-5 15.2 1.2 29.4-5.7 36.3-6 6-13 5.4-17.6.8-2.8-2.8-3.2-7.5-2.4-11.4-4 .8-8.5.4-11.4-2.4-5-4.6-6-11.7 0-17.6zm34.3 32.4c0-9.8 15-15.4 21.6-29.7 7.2 14 21.6 20 21.6 29 0 8-5.3 13-12 13-4 0-7.5-3-9.6-7-2.2 3-5.7 6-9.7 6-7 0-12-5-12-13zm47.2-1.3c-7-7-.3-21.5-5.7-36.3 15.2 5 29.4-1.2 36.3 5.7 6 6 5.4 13 .8 17.6-2.8 2.8-7.5 3.2-11.4 2.4.8 4 .4 8.5-2.4 11.4-4.6 5-11.7 6-17.6 0zm32.4-34.3c-9.8 0-15.4-15-29.7-21.6 14-7.2 20-21.6 29-21.6 8 0 13 5.3 13 12 0 4-3 7.5-7 9.6 3 2.2 6 5.7 6 9.7 0 7-5 12-13 12zm-1.3-47.2c-7 7-21.5.3-36.3 5.7 5-15.2-1.2-29.4 5.7-36.3 6-6 13-5.4 17.6-.8 2.8 2.8 3.2 7.5 2.4 11.4 4-.8 8.5-.4 11.4 2.4 5 4.6 6 11.7 0 17.6zm-77.6-32.4c0 9.8 15 16 21.6 30.4C132.5 83.5 147 77 147 67.4c0-8.4-5.4-13-12-13-4 0-7.6 3-9.7 6.3-2.2-3.3-5.7-6.3-9.7-6.3-6.6 0-12 4.6-12 13z" class="color color-3" data-color="#1AAA9D"/><path d="M125.4 60.7c-2.2-3.3-5.7-6.3-9.7-6.3-6.6 0-12 4.6-12 13 0 9.8 15 16 21.7 30.4M79.8 79.3c-4-.8-8.5-.4-11.4 2.4-4.7 4.7-5.2 11.7.8 17.6 7 7 22 .8 36.8 6.2m-45.3 19c-3.3 2.3-6.3 5.8-6.3 9.8 0 6.6 4.6 12 13 12 9.8 0 16-15 30.4-21.7m-18.5 45.6c-.8 4-.4 8.5 2.4 11.4 4.7 4.7 11.7 5.2 17.6-.8 7-7 .8-22 6.2-36.8m19 45.3c2.3 3.3 5.8 6.3 9.8 6.3 6.6 0 12-4.6 12-13 0-9.8-15-16-21.7-30.4m45.6 18.5c4 .8 8.5.4 11.4-2.4 4.7-4.7 5.2-11.7-.8-17.6-7-7-22-.8-36.8-6.2m45.3-19c3.3-2.3 6.3-5.8 6.3-9.8 0-6.6-4.6-12-13-12-9.8 0-16 15-30.4 21.7m18.5-45.6c.8-4 .4-8.5-2.4-11.4-4.7-4.7-11.7-5.2-17.6.8-7 7-.8 22-6.2 36.8" opacity=".2"/><g fill="#fbe2de"><circle cx="125" cy="125" r="8.8" class="color color-2" data-color="#EF5C6F"/><circle cx="115.2" cy="100.8" r="4.4" class="color color-2" data-color="#EF5C6F"/><circle cx="100.9" cy="114.8" r="4.4" class="color color-2" data-color="#EF5C6F"/><circle cx="100.8" cy="134.8" r="4.4" class="color color-2" data-color="#EF5C6F"/><circle cx="114.8" cy="149.1" r="4.4" class="color color-2" data-color="#EF5C6F"/><circle cx="134.8" cy="149.2" r="4.4" class="color color-2" data-color="#EF5C6F"/><circle cx="149.1" cy="135.2" r="4.4" class="color color-2" data-color="#EF5C6F"/><circle cx="149.2" cy="115.2" r="4.4" class="color color-2" data-color="#EF5C6F"/><circle cx="135.2" cy="100.9" r="4.4" class="color color-2" data-color="#EF5C6F"/></g><path d="M125 133.8c-5 0-8.8-4-8.8-8.8s4-8.8 8.8-8.8v17.6z" opacity=".1"/><g fill="#f8fdf4"><circle cx="94" cy="49.3" r="6.4" class="color color-4" data-color="#F59751"/><circle cx="49.6" cy="93.4" r="6.4" class="color color-4" data-color="#F59751"/><circle cx="49.3" cy="156" r="6.4" class="color color-4" data-color="#F59751"/><circle cx="93.4" cy="200.4" r="6.4" class="color color-4" data-color="#F59751"/><circle cx="156" cy="200.7" r="6.4" class="color color-4" data-color="#F59751"/><circle cx="200.4" cy="156.6" r="6.4" class="color color-4" data-color="#F59751"/><circle cx="200.7" cy="94" r="6.4" class="color color-4" data-color="#F59751"/><circle cx="156.6" cy="49.6" r="6.4" class="color color-4" data-color="#F59751"/></g><g fill="#f8fdf4"><circle cx="125.4" cy="74.9" r="6.4" class="color color-4" data-color="#F59751"/><circle cx="89.8" cy="89.2" r="6.4" class="color color-4" data-color="#F59751"/><circle cx="74.9" cy="124.6" r="6.4" class="color color-4" data-color="#F59751"/><circle cx="89.2" cy="160.2" r="6.4" class="color color-4" data-color="#F59751"/><circle cx="124.6" cy="175.1" r="6.4" class="color color-4" data-color="#F59751"/><circle cx="160.2" cy="160.8" r="6.4" class="color color-4" data-color="#F59751"/><circle cx="175.1" cy="125.4" r="6.4" class="color color-4" data-color="#F59751"/><circle cx="160.8" cy="89.8" r="6.4" class="color color-4" data-color="#F59751"/></g><path d="M125.4 81.2c-3.5 0-6.4-3-6.4-6.4 0-3.5 3-6.4 6.4-6.4v12.8zm-31 12.6c-2.5 2.5-6.5 2.5-9 0s-2.5-6.5 0-9l9 9zm-13.2 30.8c0 3.5-3 6.4-6.4 6.4s-6.4-3-6.4-6.4h12.8zm12.6 31c2.5 2.5 2.5 6.5 0 9s-6.5 2.5-9 0l9-9zm30.8 13.2c3.5 0 6.4 3 6.4 6.4 0 3.5-3 6.4-6.4 6.4v-12.8zm31-12.6c2.5-2.5 6.5-2.5 9 0s2.5 6.5 0 9l-9-9zm13.2-30.8c0-3.5 3-6.4 6.4-6.4 3.5 0 6.4 3 6.4 6.4h-12.8zm-12.6-31c-2.5-2.5-2.5-6.5 0-9s6.5-2.5 9 0l-9 9zM43 124.6c3.3 2.2 6.3 5.7 6.3 9.7 0 6.6-4.6 12-13 12-9.8 0-15.4-15-29.7-21.7m176.7-57.4c-4 .8-8.5.4-11.4-2.4-5-4.7-6-11.7 0-17.6 7-7 21-.3 36-5.7M67 66.7c.8 4 .4 8.5-2.4 11.4C60 83 53 84 47 78c-7-7-.2-21.3-5.6-36m25.3 141c4-1 8.5-.5 11.4 2.3 5 4.7 6 11.7 0 17.7-7 7-21 0-36 5.4m83-1.4c2-3.3 6-6.3 10-6.3 7 0 12 4.6 12 13 0 9.8-15 15.4-21 29.7m58-60c-1-4 0-8.6 2-11.5 5-5 12-6 18 0 7 7 0 21 6 36m-1-84c-3-2-6-6-6-10 0-7 5-12 13-12 10 0 16 15 30 21" opacity=".1"/><g fill="#fbe2de"><circle cx="125.4" cy="30.2" r="7.9" class="color color-2" data-color="#EF5C6F"/><circle cx="30.2" cy="124.6" r="7.9" class="color color-2" data-color="#EF5C6F"/><circle cx="124.6" cy="219.8" r="7.9" class="color color-2" data-color="#EF5C6F"/><circle cx="219.8" cy="125.4" r="7.9" class="color color-2" data-color="#EF5C6F"/></g><g fill="#b6f3f0"><circle cx="58.3" cy="57.7" r="7.9" class="color color-3" data-color="#1AAA9D"/><circle cx="57.7" cy="191.7" r="7.9" class="color color-3" data-color="#1AAA9D"/><circle cx="191.7" cy="192.3" r="7.9" class="color color-3" data-color="#1AAA9D"/><circle cx="192.3" cy="58.3" r="7.9" class="color color-3" data-color="#1AAA9D"/></g><path d="M96.3 55.3c-3.3 1.2-7-.5-8.2-3.7-1-3.3 1-7 4-8.2M56 96c-1.5 3.2-5.2 4.6-8.4 3-3.2-1.4-4.6-5-3-8.3m11.3 63c1 3.3-1 7-4 8.2s-7-1-9-4m52 36c3 1 4 5 3 8s-5 4-9 3m63-12c3-1 7 0 8 3s-1 7-4 8m36-53c1-3 5-5 8-3s4 5 3 8m-11-63c-1-4 0-7 3-8s7 0 8 4m-50-34c-3-2-5-5-3-9 1-3.7 5-5 8-3m-34-6c-4 0-8-3.8-8-8s4-8 8-8M64 63c-3 3-8 3-11.2 0-3-3-3-8 0-11M38 124.5c0 4.4-3.4 8-7.8 8s-8-3.6-8-8m41 61.4c3 3 3 8 0 11s-8 3-11 0m72.4 14c4.4 0 8 3 8 7s-3.6 8-8 8m61.4-41c3.2-3 8.2-3 11.3 0s3 8 0 11M186.7 64c-3-3.2-3-8.2 0-11.3s8-3 11.2 0m14 72.7c0-4.4 3-8 7-8s8 3.6 8 8m-110-20.7c-3 1-5 0-6-2.3-1-2.2 0-4.8 2-5.8m-9 19.7c-1 2.3-4 3.4-6 2.5s-3-3.5-2-5.8m8 20c1 3 0 5-3 6-2 1-5 0-6-2m19 9c2 1 3 4 2 6-1 2.5-4 3.6-6 2.7m20-8c3-1 5 0 6 2.4 1 2 0 5-2 6m9-19c1-2 3-3 5-2 3 1 4 4 3 6m-8-20c-1-2 0-4 2.4-5 2-1 5 0 6 3m-20-8c-2-1-3-3.5-2-5.7 1-2 3-3.2 5-2.3" opacity=".1"/><g fill="#5b6265"><path d="M135 52.2c-3.3 0-6.8-1.7-9.6-4.6-2.8 3-6.3 4.6-9.7 4.6-8.7 0-14.8-6.5-14.8-16 0-6.3 4-11 9-15.8 4-4 9-8.7 12-15l3-5.4 2 5.3c3 6.2 7 10.8 12 14.8 5 5 10 10 10 17 0 10-7 16-15 16zm-9.6-14.5l2.4 3.7c1.6 2.4 4.3 5 7.3 5 6 0 9-4 9-10.2 0-4-3-7.6-8-12-3-3.5-7-7.2-10-12-3 5-7 8.8-10 12.3-4 4.4-8 8-8 11.8 0 6.3 4 10.2 9 10.2 3 0 6-2.6 8-5l3-3.8z" class="color color-1" data-color="#552955"/><path d="M122.8 99c-3-6.3-7.7-11-12-15.3-5-5-10-10-10-16.4 0-9.3 6.2-16 15-16 3.3 0 6.8 1.8 9.6 4.7 2.8-3 6.3-4.6 9.7-4.6 9 0 15 6.5 15 16 0 6.4-4 11-10 16.6-4 4.2-8 9-12 15l-2 5.3-3-5.3zm5-36.7l-2.4 3.7-2.4-3.7c-1.6-2.4-4.3-5-7.3-5-5.6 0-9 4-9 10.2 0 4 3.7 7.7 8.3 12.3 3.5 3.5 7.4 7.4 10.5 12.3 3-4 7-8 10.3-12 4.7-4 8.4-8 8.4-12 0-6-3.5-10-9-10-3 0-6 3-7.4 5zm-2.8 73.2c-5.8 0-10.5-4.7-10.5-10.5s4.7-10.5 10.5-10.5 10.5 4.7 10.5 10.5-4.7 10.5-10.5 10.5zm0-17.6c-4 0-7 3-7 7s3 7 7 7 7-3 7-7-3-7-7-7zm.4-78c-5.5 0-10-5-10-10s4.5-10 10-10 10 4 10 10-4.4 10-10 10zm0-16c-3.2 0-5.8 2-5.8 6s2.6 6 5.8 6c3.2 0 5.8-3 5.8-6s-2.6-6-5.8-6zM94 58c-4.7 0-8.5-3.8-8.5-8.5S89.3 41 94 41s8.5 3.8 8.5 8.5S98.7 58 94 58zm0-13c-2.3 0-4.2 2-4.2 4.3s2 4.2 4.2 4.2c2.3 0 4.2-2 4.2-4.2 0-2.3-1.8-4.2-4.2-4.2z" class="color color-1" data-color="#552955"/><circle cx="125" cy="109.6" r="3.3" class="color color-1" data-color="#552955"/><circle cx="114.1" cy="114.1" r="3.3" class="color color-1" data-color="#552955"/><circle cx="109.6" cy="125" r="3.3" class="color color-1" data-color="#552955"/><circle cx="114.1" cy="135.9" r="3.3" class="color color-1" data-color="#552955"/><circle cx="125" cy="140.4" r="3.3" class="color color-1" data-color="#552955"/><circle cx="135.9" cy="135.9" r="3.3" class="color color-1" data-color="#552955"/><circle cx="140.4" cy="125" r="3.3" class="color color-1" data-color="#552955"/><circle cx="135.9" cy="114.1" r="3.3" class="color color-1" data-color="#552955"/><path d="M125.4 83.4c-4.7 0-8.5-3.8-8.5-8.5 0-5 3-9 8-9s8 4 8 8-4 8-9 8zm0-12.8c-2.3 0-4.2 2-4.2 4.2 0 2.3 2 4.2 4.2 4.2 2.3 0 4.2-2 4.2-4.2 0-2.3-1.8-4.2-4.2-4.2zM89.8 97.8c-2.2 0-4.4-.8-6-2.5-3.3-3.3-3.3-8.7 0-12 3.3-3.3 8.7-3.3 12 0 3.3 3.3 3.3 8.7 0 12-1.6 1.6-3.8 2.5-6 2.5zm0-12.8c-1 0-2.2.4-3 1.2-.8.8-1.2 2-1.2 3s.4 2.2 1.2 3c1.7 1.6 4.3 1.6 6 0 1.6-1.6 1.6-4.3 0-6-.8-.8-2-1.2-3-1.2zM75 133c-4.8 0-8.6-3.7-8.6-8.4s3.8-8.5 8.5-8.5c4 0 8 4 8 9s-4 9-9 9zm0-12.7c-2.4 0-4.3 2-4.3 4.2 0 2.3 2 4.2 4.2 4.2s4-2 4-4.2c0-2.3-2-4.2-4-4.2zm14.2 48.4c-2.2 0-4.4-.8-6-2.5-3.3-3.3-3.3-8.7 0-12 3.3-3.3 8.7-3.3 12 0 3.3 3.3 3.3 8.7 0 12-1.6 1.6-3.8 2.5-6 2.5zm0-12.8c-1 0-2.2 0-3 1-.8 1-1.2 2-1.2 3s.4 2 1.2 3c1.6 1 4.4 1 6 0 1.6-2 1.6-5 0-6-.8-1-1.8-1-3-1zm35.4 27c-4.7 0-8.5-4-8.5-9s4-9 9-9 9 4 9 8-3 8-8 8zm0-13c-2.3 0-4.2 1-4.2 4s2 4 4.2 4c2.3 0 4.2-2 4.2-5s-2-4-4.2-4zm35.6-2c-2.3 0-4.4-1-6-3-3.3-4-3.3-9 0-12 3.3-4 8.7-4 12 0 3.3 3 3.3 8 0 12-1.6 1-3.8 2-6 2zm0-13c-1 0-2.2 0-3 1-1.6 1-1.6 4 0 6 1.6 1 4.4 1 6 0 1.6-2 1.6-4 0-6-1-1-2-1-3-1zm14.8-22c-4.6 0-8.4-4-8.4-9s3.8-9 8.5-9 9 3 9 8-4 8-8 8zm0-13c-2.2 0-4 2-4 4s1.8 4 4 4 4.3-2 4.3-5-1.8-4-4.2-4zm-14.2-22c-2.3 0-4.4-1-6-3-1.6-2-2.5-4-2.5-6 0-3 1-5 2.5-6 3.2-4 8.8-4 12 0 1.6 1 2.5 3 2.5 6 0 2-1 4-2.5 6-1.6 1-3.8 2-6 2zm0-13c-1 0-2.2 0-3 1-.8 1-1.2 2-1.2 3s.4 2 1.2 3c1.6 1 4.4 1 6 0 .8-1 1.2-2 1.2-3s-.4-2-1.2-3c-1-1-2-1-3-1z" class="color color-1" data-color="#552955"/><path d="M110.3 109.6l-5.6-1.8c-6.6-2.2-13-2-19-2-7 0-14 .2-18.4-4.4-6.6-6.6-7-15.5-.8-21.7 2.4-2.4 6-3.7 10-3.6 0-4 1.3-7 3.7-10 6-6 15-5 21.7 1 4 5 4 11 4 19 0 6 0 13 2 19l2 6zM89 100c4 0 8 .2 12.4 1-1.2-5.7-1-11.2-1-16 0-6.4.2-11.4-2.6-14.2-4.4-4.4-9.6-4.7-13.6-.8-2 2-2.2 6-1.6 8.7l1 4.3-4.4-1c-2.8-.5-6.6-.4-8.7 1.7-4 4-3.6 9 .8 13.6 3 3 8 2.8 14.4 2.7H89z" class="color color-1" data-color="#552955"/><path d="M67.4 149c-9.3 0-16-6-16-14.7 0-3.4 1.8-7 4.7-9.7-2-2.8-4-6.3-4-9.7 0-9 7-15 16-15 7 0 11 5 16 10 4 4 9 9 15 12l6 2-5 2c-6 3-11 8-15 12-5 5-10 10-16 10zm0-43c-6.3 0-10.2 3.4-10.2 9 0 3 2.6 5.7 5 7.2l3.7 2.4-4 2.4c-3 1.6-5 4.3-5 7.3 0 5.6 4 9 10 9 4 0 7-3.6 12-8.3 3-3.4 7-7.2 12-10.4-5-3.2-9-7-13-10.7-5-5-8-8-12-8z" class="color color-1" data-color="#552955"/><path d="M90 188c-4 0-7.5-1.6-10.3-4.4-2.4-2.4-3.7-6-3.6-10-4 0-7-1.3-10-3.7-6-7-5-16 1-22 5-5 11-5 19-4 6 0 13 0 19-3l6-2-2 5c-2 6-2 13-2 19 0 7 0 14-4 18-4 3-8 5-12 5zm-7-21.5l-1 4.3c-.5 2.8-.4 6.6 1.7 8.7 1.8 1.8 4 3 6.3 2.7 2.5 0 5-1.2 7.3-3.5 3-3 2.8-8 2.7-14.4 0-4.8 0-10 1-15.7-5.7 1.2-11.2 1-16 1-6.4 0-11.4-.2-14.2 2.6-4.4 4.4-4.7 9.6-.8 13.6 2 2 6 2.2 8.7 1.6l4.3-1z" class="color color-1" data-color="#552955"/><path d="M134.4 198.5c-3.4 0-7-1.7-9.7-4.6-2.8 2-6.3 4-9.7 4-8.7 0-14.8-7-14.8-16 0-7 4.8-11 10-16 4-4 9-9 12-15l2.4-6 2.7 5c3 6 7.8 11 12 15 5 5 10 10 10 16-.2 9-6.2 16-15 16zm-9.8-14.5l2.4 3.7c1.6 2.4 4.3 5 7.3 5 5.6 0 9-4 9-10 0-4-3.6-7.7-8.3-12.2-3.4-3.4-7.2-7-10.4-11.8-3.2 5-7 8.7-10.7 12.2-5 4-9 7-9 11 0 6 3 10 9 10 3 0 6-3 7-5l2-4z" class="color color-1" data-color="#552955"/><path d="M159.6 188.5h-.2c-4 0-8-1.8-11.3-5.2-4-4.5-4-11.2-4-18.3 0-6 0-12.6-2-19l-2-5.6 6 1.8c7 2.2 13 2 19 2 7 0 14-.2 19 4.4 7 6.6 7 15.5 1 21.7-2 2.4-6 3.7-10 3.6 0 4-1 7-3 10-3 3-6 4-10 4zm-11-39.5c1.2 5.7 1 11.2 1 16 0 6.4-.2 11.4 2.6 14.2 2.3 2.3 4.8 3.5 7.3 3.5 2.3 0 4.5-1 6.3-2.7 2-2 2.2-6 1.6-8.7l-1-4.3 4.4 1c2.8.5 6.6.4 8.7-1.7 1.8-1.8 2.8-4 2.7-6.3 0-2.5-1.2-5-3.5-7.3-3-3-8-2.8-14.4-2.7-4.8 0-10 0-15.7-1z" class="color color-1" data-color="#552955"/><path d="M182.6 150c-6.4 0-11-5-16-10-4-4.2-8.6-9-15-12l-5.3-2.5 5.3-2.7c6.2-3 10.8-7.8 14.8-12 5-5 9.8-10 16.2-10 9.3 0 16 6 16 14.8 0 3.4-1.8 7-4.7 9.7 2 2.8 4 6.3 4 9.7 0 8.8-7 15-16 15zm-24-24.7c5 3.2 8.8 7 12.3 10.7 4 4.6 7 8.2 11 8.2 6 0 10-3.5 10-9 0-3-3-5.8-5-7.3l-4-3 3-3c2-2 5-5 5-8 0-6-4-9-10-9-4 0-8 3-12 8-4 3-7 7-12 10z" class="color color-1" data-color="#552955"/><path d="M140.4 110.3l1.8-5.6c2.2-6.6 2-13 2-19 0-7-.2-14 4.4-18.4 3.4-3.4 7.3-5 11.3-5.2 3 1 7 2 10 5 2 3 3 6 3 10 4 0 7 2 10 4 6 6 6 15-1 22-5 5-12 5-19 4-6 0-13 0-19 3l-6 2zM160 67.7c-2.5 0-5 1.2-7.3 3.5-3 3-2.8 8-2.7 14.4 0 4.8 0 10-1 15.7 5.7-1.2 11.2-1 16-1 6.4 0 11.4.2 14.2-2.6 4.4-4.4 4.7-9.6.8-13.6-2-2-6-2-8.7-1l-4.3 1 1-4c.5-2 .4-6-1.7-8-1.8-1-4-2-6.2-2zM56.7 84.5c-4 0-8-1.7-11.5-5.2C40.7 74.8 40.8 68 41 61c0-6 .2-12.6-2.2-19l-2-5.6 5.6 1.8c6.6 2.2 13 2 19 2 7 0 14-.2 18.4 4.4 6.6 6.6 7 15.5.8 21.7-2.4 2.4-6 3.7-10 3.6 0 4-1.3 7-3.7 10-3 3-7 4-11 4zM45.7 45c1 5.7 1 11.2 1 16-.2 6.4-.3 11.4 2.5 14.2 4.4 4.4 9.6 4.7 13.6.8 2-2 2.2-6 1.6-8.7l-1-4.3 4.4 1c2.8.5 6.6.4 8.7-1.7 4-4 3.6-9-.8-13.6-3-3-8-2.8-14.4-2.7-4.7 0-10 0-15.7-1zm-9.4 104c-6.4 0-11-4.7-16-9.8-4-4.2-8.6-9-15-12L0 124.8l5.3-2.7c6.2-3 10.8-7 14.8-12 5-5 10-10 17-10 10 0 16 7 16 15 0 4-2 7-4 10 3 3 5 7 5 10 0 9-6 15-16 15zm-24-24.4c5 3.2 8.7 7 12.2 10.7 4.4 4.6 8 8.2 11.8 8.2 6.3 0 10.2-3.5 10.2-9 0-3-2.6-5.8-5-7.3l-3.7-2.4 3.7-2.4c2.4-1.6 5-4.3 5-7.3 0-5-4-9-10.2-9-4 0-7.6 4-12 9-3.5 3-7.2 7-12 10z" class="color color-1" data-color="#552955"/><path d="M58.3 67.7c-2.7 0-5.2-1-7-3-4-3.8-4-10.2 0-14 3.8-4 10.2-4 14 0 2 1.8 3 4.3 3 7s-1 5.2-3 7-4.3 3-7 3zm0-15.8c-1.5 0-3 0-4 1-2.3 2-2.3 6 0 8 2 2 5.8 2 8 0s2.2-6 0-8c-1-1-2.5-2-4-2zm-28 82c-5.6 0-10-5-10-10s4.4-10 10-10 10 4 10 10-4.5 10-10 10zm0-16c-3.3 0-6 2-6 6 0 3 2.7 6 6 6s5.7-3 5.7-6-2.6-6-5.8-6zm27.4 83c-2.7 0-5.2-1-7-3-4-4-4-10 0-14 3.7-4 10.3-4 14 0 2 2 3 4 3 7s-1 5-3 7c-1.8 2-4.3 3-7 3zm-4-14c-2.3 2-2.3 6 0 8 2 2 5.8 2 8 0s2.2-6 0-8c-2.2-3-5.8-3-8 0z" class="color color-1" data-color="#552955"/><path d="M36.4 213.2l1.8-5.6c2.2-6.6 2-13 2-19 0-7-.2-14 4.4-18.4 6.6-6.6 15.5-7 21.7-.8 2.4 2.4 3.7 6 3.6 10 4 0 7 1.3 10 3.7 3 3 4 7 4 11s-2 8-5 12c-5 5-11 5-19 4-6 0-13 0-19 3l-6 2zm19.8-42.6c-2.5 0-5 1.2-7.4 3.5-3 3-2.8 8-2.7 15 1 5 1 10-1 16 6-1 12-1 17-1 7 0 12 0 14-2 3-2 4-5 4-7s-1-4-3-6-6-2-8-1l-4 1 1-4c1-2 1-6-1-8-2-1-4-2-6-2zm68.4 59.2c-5.5 0-10-4.5-10-10s4.5-10 10-10 10 4.5 10 10-4.5 10-10 10zm0-15.8c-3.2 0-5.8 2.6-5.8 5.8s2.6 5.8 5.8 5.8c3.2 0 5.8-2.6 5.8-5.8s-2.7-5.8-5.8-5.8z" class="color color-1" data-color="#552955"/><path d="M124.8 250l-2.7-5.3c-3-6.2-7-10.8-12-14.8-5-5-10-10-10-17 0-10 7-16 15-16 4 0 7 2 10 4 3-3 7-5 10-5 9 0 15 6 15 16 0 6-4 11-10 16-4 4-9 8-12 15l-3 6zm-10-46.4c-5.5 0-9 4-9 10 0 4 3.7 7.7 8.4 12.2 3.4 3.4 7.2 7 10.4 11.8 3.2-5 7-8.7 10.7-12.2 4.6-4.4 8.2-8 8.2-11.8 0-6.3-3.5-10-9-10-3 0-5.8 2.5-7.3 5l-2.4 3.6-2.4-3.7c-1.7-2.3-4.5-5-7.5-5zm98.4 10l-5.6-1.8c-6.6-2.2-13-2-19-2-7 0-14 .2-18.4-4.4-6.6-6.6-7-15.5-.8-21.7 2.4-2.4 6-3.7 10-3.6 0-4 1.3-7 3.7-10 3-3 7-4 11-4s8 2 12 5c5 5 5 11 4 19 0 6 0 13 2 19l3 6zM192 204c4 0 8 .2 12.4 1-1.2-5.7-1-11.2-1-16 0-6.4.2-11.4-2.6-14.2-2.3-2.3-4.8-3.5-7.3-3.5-2.4 0-4.5 1-6.3 2.7-2 2-2.2 6-1.6 8.7l1 4.3-4.4-1c-2.8-.5-6.6-.4-8.7 1.7-4 4-3.6 9 .8 13.6 3 3 8 2.8 14.4 2.7h3.3z" class="color color-1" data-color="#552955"/><path d="M191.7 202.4c-2.7 0-5.2-1-7-3-2-1.8-3-4.3-3-7s1-5.2 3-7c3.7-4 10.3-4 14 0 2 1.8 3 4.3 3 7s-1 5.2-3 7c-1.8 2-4.3 3-7 3zm0-15.8c-1.5 0-3 .6-4 1.7-1.2 1-1.8 2.5-1.8 4 0 1.6 0 3 1 4.2 2 2.2 6 2.2 8 0 1-1 2-2.5 2-4 0-1.6-1-3-2-4.2-1-1.2-3-1.7-4-1.7zm22-36.6c-9.3 0-16-6.2-16-15 0-3.3 1.8-6.8 4.7-9.6-3-2.8-4.6-6.3-4.6-9.7 0-8.7 6.5-14.8 16-14.8 6.3 0 11 4 15.8 9 4 4 8.7 9 15 12l5.4 2-5.3 2c-6.2 3-10.8 7-14.8 12-5 5-10 10-17 10zm0-43.4c-6.3 0-10 3.5-10 9 0 3 2.5 5.8 5 7.3l3.6 2-3.7 2c-2.4 1-5 4-5 7 0 5 4 9 10 9 4 0 7.7-4 12.2-9 3.4-4 7-7 11.8-11-5-4-8.7-7-12.2-11-4.3-5-7.8-8-11.7-8zm-20-21.6c-3.6 0-7-1.5-10-4.4-2.5-2.4-3.8-6-3.7-10-4 0-7.7-1.3-10-3.7-6.2-7-6-16 .7-22 4.5-5 11.2-5 18.3-4 6 0 12.6 0 19-3l5.6-2-1.8 5c-2.2 6-2 13-2 19 0 7 .2 14-4.4 18-3.5 3-7.6 5-11.6 5zM187 63.5l-1 4.3c-.5 2.8-.4 6.6 1.7 8.7 4 4 9.2 3.6 13.6-.8 3-3 2.8-8 2.7-14.4 0-4.8 0-10 1-15.7-5.7 1.2-11.2 1-16 1-6.5 0-11.5-.2-14.2 2.6-4.4 4.4-4.7 9.6-.8 13.6 2 2 6 2.2 8.7 1.6l4.3-1z" class="color color-1" data-color="#552955"/><path d="M192.3 68.3c-2.7 0-5.2-1-7-3-2-1.8-3-4.3-3-7s1-5.2 3-7c3.7-4 10.3-4 14 0 2 1.8 3 4.3 3 7s-1 5.2-3 7c-1.8 2-4.3 3-7 3zm0-15.8c-1.5 0-3 .6-4 1.7-2.3 2.2-2.3 6 0 8 2 2.3 5.8 2.3 8 0 2.2-2 2.2-5.8 0-8-1-1-2.5-1.7-4-1.7zM49.6 102c-2.2 0-4.4-1-6-2.6-3.3-3.3-3.3-8.7 0-12 3.3-3.3 8.7-3.3 12 0 3.3 3.3 3.3 8.7 0 12-1.7 1.6-3.8 2.5-6 2.5zm0-13c-1 0-2.2.5-3 1.3-.8.8-1.2 2-1.2 3s.4 2.2 1.2 3c1.7 1.6 4.3 1.6 6 0 1.6-1.6 1.6-4.3 0-6-.8-.7-2-1.2-3-1.2zm-.3 75.5c-4.7 0-8.5-3.8-8.5-8.5s3.8-8.5 8.5-8.5 8.5 3.8 8.5 8.5-3.8 8.5-8.5 8.5zm0-12.8c-2.3 0-4.2 2-4.2 4.2s2 4 5 4 4-2 4-4-2-5-4-5zm44 57.3c-2.2 0-4.3-1-6-2.6-1.5-1.6-2.4-3.7-2.4-6s0-4.4 2-6c3-3.2 9-3.2 12 0 1 1.6 2 3.7 2 6s-1 4.4-3 6c-2 1.7-4 2.5-6 2.5zm0-12.8c-1 0-2 .4-3 1.2-.7.8-1 2-1 3s.3 2.2 1 3c1.7 1.6 4.5 1.6 6 0 1-.8 1.3-2 1.3-3s-.4-2.2-1.2-3c-.8-.8-2-1.2-3-1.2zm62.7 13c-4.7 0-8.5-3.8-8.5-8.5s3.8-8.5 8.5-8.5 8.5 3.8 8.5 8.5-3.8 8.5-8.5 8.5zm0-12.7c-2.3 0-4.2 2-4.2 4.2s2 4.2 4.2 4.2 4.2-2 4.2-5-2-4-4.2-4zm44.4-31.3c-2.3 0-4.4-1-6-2.5-3.3-3.3-3.3-8.7 0-12 3.2-3.2 8.8-3.2 12 0 3.3 3.3 3.3 8.7 0 12-1.6 1.6-3.7 2.5-6 2.5zm0-12.8c-1 0-2.2.4-3 1.2-1.6 1.6-1.6 4.3 0 6 1.6 1.6 4.4 1.6 6 0 1.6-1.6 1.6-4.3 0-6-.8-.8-2-1.2-3-1.2zm.3-49.8c-4.7 0-8.5-3.8-8.5-8.5 0-4 3.8-8 8.5-8s8.5 4 8.5 9-3.8 9-8.5 9zm0-12.8c-2.3 0-4.2 2-4.2 4.2 0 2.3 2 4.2 4.2 4.2s4.2-2 4.2-4.2c0-2.3-2-4.2-5-4.2zm-44-31.8c-2.3 0-4.5-.7-6-2.4-3.4-3.3-3.4-8.7 0-12 3.2-3.3 8.6-3.3 12 0 3.2 3.3 3.2 8.7 0 12-1.7 1.7-4 2.5-6 2.5zm0-12.6c-1 0-2.3.4-3 1.2-1.7 1.6-1.7 4.3 0 6 1.6 1.6 4.2 1.6 6 0 1.5-1.6 1.5-4.3 0-6-1-.8-2-1.2-3-1.2zm63 90c-5.4 0-10-4.4-10-10s4.6-10 10-10 10 4.6 10 10-4.4 10-10 10zm0-15.7c-3 0-5.7 2.6-5.7 5.8 0 3.2 2.6 5.8 5.8 5.8s5.8-2.6 5.8-5.8c0-3.2-2.6-5.8-5.8-5.8zm-104.5-12.4c-3.6 0-6.6-3-6.6-6.6s3-6.6 6.6-6.6 6.6 3 6.6 7-3 7-6.6 7zm0-8.8c-1.2 0-2.3 1-2.3 2.3 0 1.2 1 2.3 2 2.3s2-1 2-2-1-2-3-2zm-14.2 23c-1.8 0-3.5-.7-4.7-2-2.6-2.6-2.6-6.7 0-9.3 2.6-2.6 6.7-2.6 9.3 0 2.6 2.6 2.6 6.7 0 9.3-1.3 1.2-3 2-4.7 2zm0-9c-.7 0-1.3.3-1.7.8-1 1-1 2.3 0 3.2 1 1 2.3 1 3.2 0 1-1 1-2.3 0-3.2-.4-.5-1-.7-1.6-.7zm-.2 29c-3.6 0-6.6-3-6.6-6.7s3-6.6 6.6-6.6 6.6 3 6.6 6.6-3 6.6-6.6 6.6zm0-9c-1.2 0-2.3 1-2.3 2.4 0 1 1 2 2.3 2 1.2 0 2.3-1 2.3-3s-1-3-2-3zm14 23c-1.8 0-3.4-.6-4.6-2-1.2-1-2-2.7-2-4.4s.8-3 2-4c2.5-2 6.8-2 9.3 0 1.2 1 2 3 2 5s-.8 4-2 5c-1.3 2-3 2-4.7 2zm0-8.7c-.6 0-1.2.2-1.6.7-.4.4-.7 1-.7 1.6 0 1 .2 2 .7 2 1 1 2.3 1 3.2 0 .4 0 .7-1 .7-1v-1h-1zm20 9c-3.6 0-6.6-3-6.6-6.6s3-6.6 6.6-6.6 6.6 3 6.6 6.6-3 6.6-6.6 6.6zm0-8.8c-1.2 0-2.3 1-2.3 2.3s1 2.3 2.3 2.3 2.3-1 2.3-2.3-1-2.3-2-2.3zm14.2-5.3c-1.6 0-3.3-.6-4.5-2-2.6-2.5-2.6-6.6 0-9.2 2.6-2.6 6.7-2.6 9.3 0 2.6 2.6 2.6 6.7 0 9.3-1.4 1.3-3 2-4.7 2zm0-8.8h-1.5c-1 1-1 2 0 3s2.3 1 3.2 0c1-1 1-3 0-3-.5-1-1-1-1.6-1zm.2-12c-3.6 0-6.6-3-6.6-7s3-7 6.6-7c3.6 0 6.6 3 6.6 6s-3 6-6.6 6zm0-9c-1.2 0-2.3 1-2.3 2s1 2 2 2 2-1 2-3-1-3-3-3zm-14-6c-1.7 0-3.4-1-4.6-2-2.6-3-2.6-7 0-9 2.6-3 6.7-3 9.3 0 2 2 2 6 0 9-2 1-3 2-5 2zm0-9c-.6 0-1.2 0-1.6 1-1 1-1 2 0 3s2.3 1 3.2 0c1-1 1-2 0-3-.5-1-1-1-1.6-1z" class="color color-1" data-color="#552955"/></g></svg>